<svg width="319" height="95" viewBox="0 0 319 95" fill="none" xmlns="http://www.w3.org/2000/svg">
<g clip-path="url(#clip0_1844_1507)">
<path d="M0 -0.000457764V94.2813H94.7752V-0.000457764H0ZM55.7218 66.0633C54.0247 68.4116 51.717 70.2051 48.7891 71.4534C45.866 72.7017 42.5823 73.3234 38.9476 73.3234C33.2456 73.3234 28.5773 72.0034 24.9378 69.3633C21.2983 66.7233 19.0627 62.9593 18.2262 58.0666H24.4186C25.2551 61.4384 26.8994 63.9971 29.3561 65.7333C31.8129 67.4694 35.0341 68.3351 39.0149 68.3351C42.9957 68.3351 45.9573 67.4455 48.3419 65.6567C50.7266 63.8728 51.9189 61.5149 51.9189 58.5783C51.9189 56.0339 51.217 54.0204 49.8179 52.5282C48.4189 51.036 46.241 49.9981 43.2938 49.4098L31.0533 46.918C27.0724 46.1385 24.1109 44.7562 22.1685 42.7762C20.2262 40.7962 19.255 38.0222 19.255 34.4495C19.255 31.5655 20.1156 29.1072 21.8368 27.0793C23.558 25.0514 25.8561 23.521 28.7311 22.4975C31.6062 21.4692 34.7649 20.9574 38.2072 20.9574C43.515 20.9574 47.7939 22.1579 51.0343 24.5492C54.2795 26.9454 56.2218 30.3937 56.8613 34.8895H50.6689C50.0775 31.8572 48.6881 29.595 46.5054 28.1028C44.3179 26.6106 41.5053 25.8645 38.063 25.8645C34.3754 25.8645 31.3754 26.5867 29.0677 28.0263C26.7551 29.4707 25.6013 31.4842 25.6013 34.0764C25.6013 36.3243 26.1782 38.0509 27.3321 39.2465C28.4859 40.447 30.3658 41.3127 32.9716 41.8484L45.7986 44.4167C50.0247 45.2489 53.1593 46.7411 55.1978 48.8885C57.2363 51.0407 58.2555 54.0204 58.2555 57.837C58.2555 60.9649 57.4094 63.7054 55.7122 66.0537L55.7218 66.0633ZM76.549 72.8117H70.2797V40.0979H63.4239V35.1812H76.549V72.8069V72.8117Z" fill="black"/>
<path d="M126.319 42.011C123.968 42.011 121.963 41.5614 120.309 40.6718C118.651 39.7774 117.242 38.5483 116.079 36.9795L118.651 34.8369C119.675 36.1856 120.805 37.2091 122.05 37.9074C123.295 38.6104 124.757 38.9596 126.444 38.9596C128.516 38.9596 130.098 38.467 131.189 37.4769C132.281 36.4869 132.829 35.1669 132.829 33.5169C132.829 32.1442 132.415 31.0824 131.584 30.3411C130.757 29.5998 129.386 29.0067 127.478 28.5667L125.112 28.0311C122.459 27.4284 120.434 26.5102 119.04 25.2906C117.646 24.0662 116.944 22.3396 116.944 20.1157C116.944 18.853 117.18 17.7243 117.651 16.7343C118.122 15.7443 118.776 14.9216 119.622 14.2616C120.468 13.6016 121.473 13.0994 122.651 12.7551C123.824 12.4107 125.117 12.2385 126.526 12.2385C128.709 12.2385 130.584 12.6355 132.146 13.4342C133.709 14.2329 135.026 15.3999 136.108 16.9399L133.497 18.8387C132.694 17.7387 131.728 16.873 130.593 16.2417C129.459 15.6103 128.05 15.2947 126.362 15.2947C124.511 15.2947 123.05 15.6869 121.987 16.4712C120.925 17.2556 120.391 18.4321 120.391 19.9961C120.391 21.3735 120.838 22.4114 121.737 23.1096C122.636 23.8127 123.997 24.3675 125.819 24.7788L128.185 25.3145C131.031 25.9458 133.093 26.9119 134.362 28.2032C135.632 29.4946 136.271 31.2164 136.271 33.359C136.271 34.6791 136.045 35.8747 135.588 36.9461C135.132 38.0174 134.473 38.9261 133.617 39.6674C132.762 40.4088 131.718 40.9875 130.487 41.3988C129.257 41.8101 127.867 42.0157 126.319 42.0157V42.011Z" fill="black"/>
<path d="M153.848 38.0891H153.684C153.463 38.5817 153.194 39.0647 152.877 39.5382C152.559 40.0165 152.165 40.4374 151.694 40.8056C151.223 41.1739 150.655 41.4657 149.992 41.6857C149.328 41.9057 148.554 42.0109 147.67 42.0109C145.458 42.0109 143.703 41.303 142.405 39.8874C141.107 38.4717 140.458 36.4725 140.458 33.885V20.2352H143.776V33.3398C143.776 37.1708 145.405 39.0839 148.67 39.0839C149.333 39.0839 149.978 39.0026 150.598 38.8352C151.218 38.6726 151.771 38.4238 152.256 38.0891C152.742 37.7591 153.127 37.3382 153.42 36.8264C153.708 36.3147 153.857 35.7025 153.857 34.9851V20.2304H157.175V41.5135H153.857V38.0891H153.848Z" fill="black"/>
<path d="M162.925 20.2304H166.242V23.6548H166.406C166.959 22.3205 167.767 21.3352 168.834 20.6943C169.896 20.0534 171.175 19.733 172.67 19.733C173.997 19.733 175.199 19.9961 176.276 20.5174C177.353 21.0387 178.271 21.7848 179.031 22.7461C179.791 23.7074 180.372 24.8792 180.771 26.2519C181.171 27.6293 181.372 29.1645 181.372 30.872C181.372 32.5794 181.171 34.1146 180.771 35.4921C180.372 36.8695 179.791 38.0365 179.031 38.9978C178.271 39.9591 177.353 40.7052 176.276 41.2265C175.199 41.7479 173.997 42.0109 172.67 42.0109C169.767 42.0109 167.68 40.7052 166.411 38.0891H166.247V49.7637H162.93V20.2304H162.925ZM171.757 39.0791C173.637 39.0791 175.118 38.4908 176.195 37.3191C177.271 36.1425 177.81 34.6025 177.81 32.6942V29.045C177.81 27.1367 177.271 25.5966 176.195 24.4249C175.118 23.2483 173.637 22.6648 171.757 22.6648C171.012 22.6648 170.3 22.77 169.622 22.9757C168.944 23.1813 168.358 23.4683 167.858 23.827C167.363 24.1857 166.968 24.6209 166.675 25.1327C166.387 25.6444 166.238 26.1897 166.238 26.7684V34.7268C166.238 35.4155 166.382 36.0325 166.675 36.573C166.968 37.1134 167.358 37.5678 167.858 37.9408C168.358 38.3139 168.944 38.5961 169.622 38.7921C170.3 38.9835 171.012 39.0839 171.757 39.0839V39.0791Z" fill="black"/>
<path d="M185.69 41.5135V20.2304H189.007V24.1474H189.214C189.598 23.1287 190.291 22.2248 191.286 21.4261C192.281 20.6273 193.646 20.2304 195.392 20.2304H196.675V23.5305H194.728C192.93 23.5305 191.526 23.8652 190.521 24.5396C189.512 25.214 189.007 26.0605 189.007 27.0745V41.5087H185.69V41.5135Z" fill="black"/>
<path d="M207.454 42.0109C205.988 42.0109 204.67 41.7478 203.493 41.2265C202.32 40.7052 201.31 39.9543 200.464 38.9786C199.622 38.003 198.968 36.836 198.517 35.4729C198.06 34.1098 197.834 32.5794 197.834 30.8719C197.834 29.1645 198.06 27.6675 198.517 26.2949C198.973 24.9222 199.622 23.7457 200.464 22.77C201.305 21.7943 202.315 21.0434 203.493 20.5221C204.666 20.0008 205.988 19.7378 207.454 19.7378C208.921 19.7378 210.175 19.996 211.31 20.5173C212.445 21.0387 213.411 21.7561 214.214 22.6744C215.017 23.5926 215.627 24.6831 216.06 25.941C216.488 27.2036 216.704 28.5858 216.704 30.0924V31.6563H201.324V32.6463C201.324 33.555 201.469 34.3968 201.762 35.1812C202.05 35.9655 202.469 36.6447 203.007 37.2234C203.545 37.8021 204.209 38.2565 204.997 38.5865C205.786 38.9165 206.675 39.0791 207.671 39.0791C209.026 39.0791 210.204 38.7634 211.214 38.1321C212.223 37.5008 213.002 36.5921 213.555 35.4107L215.921 37.1134C215.228 38.5817 214.151 39.763 212.685 40.6622C211.219 41.5613 209.478 42.0109 207.459 42.0109H207.454ZM207.454 22.4974C206.541 22.4974 205.714 22.6552 204.969 22.9709C204.223 23.2865 203.579 23.7313 203.041 24.3053C202.502 24.8792 202.079 25.5536 201.776 26.3331C201.473 27.1127 201.319 27.964 201.319 28.8967V29.1836H213.137V28.7341C213.137 26.8497 212.618 25.3383 211.584 24.2048C210.55 23.0713 209.171 22.5022 207.459 22.5022L207.454 22.4974Z" fill="black"/>
<path d="M220.887 41.5135V20.2304H224.204V23.6548H224.368C224.618 23.1096 224.902 22.6026 225.219 22.1243C225.536 21.6461 225.926 21.2348 226.382 20.8808C226.839 20.5269 227.368 20.2495 227.978 20.0439C228.584 19.8382 229.305 19.7378 230.137 19.7378C231.546 19.7378 232.844 20.0726 234.036 20.7374C235.224 21.4069 236.108 22.5022 236.69 24.0279H236.772C237.156 22.8848 237.882 21.8804 238.95 21.0243C240.012 20.1682 241.459 19.7378 243.282 19.7378C245.464 19.7378 247.171 20.4456 248.402 21.8613C249.633 23.277 250.248 25.2762 250.248 27.8636V41.5135H246.931V28.4088C246.931 26.5053 246.556 25.0753 245.81 24.1092C245.065 23.1431 243.878 22.66 242.243 22.66C241.58 22.66 240.95 22.7413 240.358 22.9087C239.762 23.0761 239.233 23.32 238.762 23.6548C238.291 23.9848 237.921 24.4057 237.642 24.9174C237.363 25.4292 237.229 26.027 237.229 26.7158V41.5135H233.911V28.4088C233.911 26.5053 233.536 25.0753 232.791 24.1092C232.046 23.1431 230.882 22.66 229.31 22.66C228.647 22.66 228.012 22.7413 227.402 22.9087C226.791 23.0761 226.252 23.32 225.786 23.6548C225.315 23.9848 224.935 24.4057 224.647 24.9174C224.358 25.4292 224.209 26.027 224.209 26.7158V41.5135H220.892H220.887Z" fill="black"/>
<path d="M263.84 42.0109C262.373 42.0109 261.056 41.7478 259.878 41.2265C258.705 40.7052 257.695 39.9543 256.849 38.9786C256.008 38.003 255.359 36.836 254.902 35.4729C254.445 34.1098 254.219 32.5794 254.219 30.8719C254.219 29.1645 254.445 27.6675 254.902 26.2949C255.359 24.9222 256.008 23.7457 256.849 22.77C257.69 21.7943 258.7 21.0434 259.878 20.5221C261.051 20.0008 262.373 19.7378 263.84 19.7378C265.306 19.7378 266.561 19.996 267.695 20.5173C268.83 21.0387 269.796 21.7561 270.599 22.6744C271.402 23.5926 272.018 24.6831 272.445 25.941C272.873 27.2036 273.09 28.5858 273.09 30.0924V31.6563H257.71V32.6463C257.71 33.555 257.854 34.3968 258.147 35.1812C258.436 35.9655 258.854 36.6447 259.392 37.2234C259.931 37.8021 260.594 38.2565 261.383 38.5865C262.171 38.9165 263.061 39.0791 264.056 39.0791C265.412 39.0791 266.59 38.7634 267.599 38.1321C268.609 37.5008 269.388 36.5921 269.941 35.4107L272.306 37.1134C271.614 38.5817 270.537 39.763 269.07 40.6622C267.604 41.5613 265.864 42.0109 263.844 42.0109H263.84ZM263.84 22.4974C262.926 22.4974 262.099 22.6552 261.354 22.9709C260.609 23.2865 259.964 23.7313 259.426 24.3053C258.888 24.8792 258.464 25.5536 258.162 26.3331C257.859 27.1127 257.705 27.964 257.705 28.8967V29.1836H269.522V28.7341C269.522 26.8497 269.003 25.3383 267.969 24.2048C266.936 23.0713 265.556 22.5022 263.844 22.5022L263.84 22.4974Z" fill="black"/>
<path d="M116.072 81.4349V78.5462H120.135V55.5317H116.072V52.6429H127.683V55.5317H123.62V78.5462H127.683V81.4349H116.072Z" fill="black"/>
<path d="M132.409 81.4349V60.1518H135.726V63.5762H135.89C136.414 62.3806 137.154 61.424 138.106 60.7162C139.058 60.0083 140.337 59.6544 141.943 59.6544C144.154 59.6544 145.904 60.3623 147.188 61.7779C148.472 63.1936 149.116 65.1928 149.116 67.7803V81.4301H145.799V68.3255C145.799 64.4945 144.183 62.5814 140.948 62.5814C140.284 62.5814 139.64 62.6627 139.02 62.8301C138.399 62.9975 137.837 63.2415 137.342 63.5762C136.847 63.9063 136.452 64.3271 136.159 64.8389C135.871 65.3506 135.722 65.9485 135.722 66.6372V81.4349H132.404H132.409Z" fill="black"/>
<path d="M159.4 81.4349C158.241 81.4349 157.361 81.1145 156.765 80.4688C156.169 79.8232 155.876 78.9814 155.876 77.9388V63.0836H152.352V60.1566H154.342C155.058 60.1566 155.549 60.0131 155.813 59.7214C156.078 59.4344 156.207 58.9322 156.207 58.2148V54.2547H159.193V60.1518H163.881V63.0788H159.193V78.5031H163.544V81.4301H159.4V81.4349Z" fill="black"/>
<path d="M175.818 81.9276C174.352 81.9276 173.034 81.6645 171.857 81.1432C170.683 80.6219 169.674 79.871 168.828 78.8953C167.986 77.9196 167.337 76.7526 166.881 75.3896C166.424 74.0265 166.198 72.496 166.198 70.7886C166.198 69.0812 166.424 67.5842 166.881 66.2115C167.337 64.8389 167.986 63.6623 168.828 62.6867C169.669 61.711 170.679 60.9601 171.857 60.4388C173.03 59.9175 174.352 59.6544 175.818 59.6544C177.284 59.6544 178.539 59.9127 179.674 60.434C180.809 60.9553 181.775 61.6727 182.578 62.591C183.381 63.5093 183.996 64.5997 184.424 65.8576C184.852 67.1202 185.068 68.5025 185.068 70.009V71.573H169.688V72.563C169.688 73.4717 169.832 74.3135 170.126 75.0978C170.414 75.8822 170.832 76.5613 171.371 77.14C171.909 77.7188 172.573 78.1731 173.361 78.5031C174.15 78.8331 175.039 78.9957 176.034 78.9957C177.39 78.9957 178.568 78.6801 179.578 78.0488C180.587 77.4174 181.366 76.5087 181.919 75.3274L184.285 77.03C183.592 78.4983 182.515 79.6797 181.049 80.5788C179.583 81.478 177.842 81.9276 175.823 81.9276H175.818ZM175.818 62.4188C174.905 62.4188 174.078 62.5767 173.333 62.8923C172.587 63.208 171.943 63.6528 171.405 64.2267C170.866 64.8006 170.443 65.475 170.14 66.2546C169.837 67.0342 169.683 67.8855 169.683 68.8181V69.1051H181.501V68.6555C181.501 66.7711 180.982 65.2598 179.948 64.1263C178.914 62.9928 177.534 62.4236 175.823 62.4236L175.818 62.4188Z" fill="black"/>
<path d="M192.775 81.4349C191.612 81.4349 190.737 81.1097 190.141 80.464C189.544 79.8184 189.251 79.0005 189.251 78.0105V50.9116H192.568V78.5031H195.722V81.4301H192.78L192.775 81.4349Z" fill="black"/>
<path d="M202.564 81.4349C201.4 81.4349 200.525 81.1097 199.929 80.464C199.333 79.8184 199.04 79.0005 199.04 78.0105V50.9116H202.357V78.5031H205.506V81.4301H202.564V81.4349Z" fill="black"/>
<path d="M210.689 55.1634C209.968 55.1634 209.453 54.9912 209.136 54.6469C208.819 54.3025 208.66 53.8577 208.66 53.3077V52.772C208.66 52.222 208.819 51.7772 209.136 51.4329C209.453 51.0885 209.972 50.9164 210.689 50.9164C211.405 50.9164 211.924 51.0885 212.242 51.4329C212.559 51.7772 212.718 52.222 212.718 52.772V53.3077C212.718 53.8577 212.559 54.3025 212.242 54.6469C211.924 54.9912 211.405 55.1634 210.689 55.1634ZM209.03 60.1518H212.348V81.4349H209.03V60.1518Z" fill="black"/>
<path d="M236.146 83.8071C236.146 85.9976 235.281 87.6094 233.555 88.6377C231.829 89.666 229.237 90.1777 225.78 90.1777C222.324 90.1777 220.03 89.7234 218.564 88.8194C217.098 87.9107 216.367 86.6241 216.367 84.9454C216.367 83.7928 216.67 82.8936 217.28 82.248C217.886 81.6023 218.718 81.1288 219.766 80.8275V80.3731C218.492 79.7705 217.857 78.7853 217.857 77.4174C217.857 76.3509 218.203 75.5378 218.896 74.9734C219.588 74.4139 220.473 73.993 221.55 73.7204V73.5578C220.28 72.9504 219.29 72.0847 218.588 70.9512C217.881 69.8225 217.53 68.512 217.53 67.0198C217.53 65.9437 217.723 64.9489 218.112 64.0401C218.497 63.1314 219.045 62.3518 219.752 61.7014C220.458 61.0509 221.3 60.5488 222.28 60.1901C223.261 59.8313 224.362 59.6496 225.579 59.6496C227.098 59.6496 228.454 59.927 229.641 60.4722V60.0992C229.641 59.267 229.833 58.5735 230.223 58.0283C230.607 57.483 231.247 57.2104 232.131 57.2104H235.324V60.1374H231.261V61.5005C232.035 62.1653 232.636 62.9545 233.064 63.8775C233.492 64.8006 233.708 65.8432 233.708 67.0006C233.708 68.0768 233.516 69.0668 233.127 69.9803C232.737 70.889 232.194 71.6686 231.487 72.319C230.781 72.9695 229.934 73.4717 228.939 73.8304C227.944 74.1891 226.838 74.366 225.622 74.366C224.929 74.366 224.237 74.2991 223.55 74.1604C222.829 74.3517 222.179 74.6339 221.603 75.0069C221.021 75.38 220.732 75.8917 220.732 76.5517C220.732 77.2118 221.035 77.6087 221.646 77.8287C222.252 78.0487 223.04 78.1587 224.011 78.1587H228.574C231.228 78.1587 233.156 78.6609 234.357 79.6605C235.559 80.6601 236.16 82.0375 236.16 83.7928L236.146 83.8071ZM233.035 84.0319C233.035 83.1806 232.708 82.4967 232.059 81.9897C231.41 81.4827 230.256 81.2245 228.598 81.2245H221.468C220.141 81.8271 219.477 82.7932 219.477 84.1132C219.477 85.0458 219.828 85.8446 220.535 86.5046C221.242 87.1646 222.434 87.4946 224.122 87.4946H227.189C229.04 87.4946 230.478 87.2076 231.502 86.6289C232.526 86.0502 233.035 85.1845 233.035 84.0319ZM225.612 71.7403C227.021 71.7403 228.141 71.4008 228.973 70.7264C229.805 70.052 230.218 69.0094 230.218 67.5985V66.4363C230.218 65.0302 229.805 63.9875 228.973 63.3084C228.141 62.6292 227.026 62.2944 225.612 62.2944C224.199 62.2944 223.083 62.634 222.252 63.3084C221.425 63.9827 221.006 65.0302 221.006 66.4363V67.5985C221.006 69.0094 221.42 70.0472 222.252 70.7264C223.079 71.4008 224.199 71.7403 225.612 71.7403Z" fill="black"/>
<path d="M246.511 81.9276C245.045 81.9276 243.728 81.6645 242.55 81.1432C241.377 80.6219 240.367 79.871 239.521 78.8953C238.68 77.9196 238.031 76.7526 237.574 75.3896C237.117 74.0265 236.891 72.496 236.891 70.7886C236.891 69.0812 237.117 67.5842 237.574 66.2115C238.031 64.8389 238.68 63.6623 239.521 62.6867C240.362 61.711 241.372 60.9601 242.55 60.4388C243.723 59.9175 245.045 59.6544 246.511 59.6544C247.978 59.6544 249.233 59.9127 250.367 60.434C251.502 60.9553 252.468 61.6727 253.271 62.591C254.074 63.5093 254.689 64.5997 255.117 65.8576C255.545 67.1202 255.762 68.5025 255.762 70.009V71.573H240.382V72.563C240.382 73.4717 240.526 74.3135 240.819 75.0978C241.108 75.8822 241.526 76.5613 242.064 77.14C242.603 77.7188 243.266 78.1731 244.055 78.5031C244.843 78.8331 245.733 78.9957 246.728 78.9957C248.084 78.9957 249.261 78.6801 250.271 78.0488C251.281 77.4174 252.06 76.5087 252.612 75.3274L254.978 77.03C254.286 78.4983 253.209 79.6797 251.742 80.5788C250.276 81.478 248.535 81.9276 246.516 81.9276H246.511ZM246.511 62.4188C245.598 62.4188 244.771 62.5767 244.026 62.8923C243.281 63.208 242.636 63.6528 242.098 64.2267C241.559 64.8006 241.136 65.475 240.833 66.2546C240.531 67.0342 240.377 67.8855 240.377 68.8181V69.1051H252.194V68.6555C252.194 66.7711 251.675 65.2598 250.641 64.1263C249.608 62.9928 248.228 62.4236 246.516 62.4236L246.511 62.4188Z" fill="black"/>
<path d="M259.944 81.4349V60.1518H263.262V63.5762H263.43C263.954 62.3806 264.694 61.424 265.646 60.7162C266.598 60.0083 267.877 59.6544 269.483 59.6544C271.694 59.6544 273.444 60.3623 274.728 61.7779C276.012 63.1936 276.656 65.1928 276.656 67.7803V81.4301H273.339V68.3255C273.339 64.4945 271.723 62.5814 268.488 62.5814C267.824 62.5814 267.18 62.6627 266.56 62.8301C265.94 62.9975 265.377 63.2415 264.882 63.5762C264.382 63.9063 263.992 64.3271 263.699 64.8389C263.411 65.3506 263.262 65.9485 263.262 66.6372V81.4349H259.944Z" fill="black"/>
<path d="M290.171 81.9276C288.68 81.9276 287.339 81.6645 286.147 81.1432C284.959 80.6219 283.954 79.8806 283.142 78.9145C282.324 77.9531 281.704 76.7861 281.276 75.4087C280.848 74.0361 280.632 72.496 280.632 70.7886C280.632 69.0812 280.844 67.5459 281.276 66.1685C281.704 64.7959 282.324 63.6241 283.142 62.6628C283.954 61.7014 284.959 60.9601 286.147 60.434C287.334 59.9127 288.676 59.6497 290.171 59.6497C292.301 59.6497 294.007 60.1088 295.291 61.0319C296.575 61.9549 297.536 63.1554 298.171 64.6428L295.392 66.0442C295.003 64.9441 294.368 64.0928 293.483 63.4854C292.599 62.8828 291.493 62.5767 290.166 62.5767C289.171 62.5767 288.3 62.7345 287.555 63.0502C286.81 63.3658 286.185 63.8058 285.69 64.3702C285.19 64.9346 284.82 65.6089 284.57 66.3933C284.32 67.1777 284.199 68.0386 284.199 68.9712V72.6013C284.199 74.4713 284.704 76.0018 285.714 77.2022C286.724 78.3979 288.209 78.9958 290.171 78.9958C292.853 78.9958 294.786 77.757 295.974 75.2844L298.378 76.8914C297.685 78.4314 296.656 79.6558 295.286 80.5645C293.916 81.4732 292.209 81.9276 290.166 81.9276H290.171Z" fill="black"/>
<path d="M309.575 81.9276C308.108 81.9276 306.791 81.6645 305.613 81.1432C304.435 80.6219 303.43 79.871 302.584 78.8953C301.738 77.9196 301.089 76.7526 300.637 75.3896C300.18 74.0265 299.954 72.496 299.954 70.7886C299.954 69.0812 300.18 67.5842 300.637 66.2115C301.094 64.8389 301.743 63.6623 302.584 62.6867C303.425 61.711 304.435 60.9601 305.613 60.4388C306.786 59.9175 308.108 59.6544 309.575 59.6544C311.041 59.6544 312.296 59.9127 313.43 60.434C314.565 60.9553 315.531 61.6727 316.334 62.591C317.137 63.5093 317.753 64.5997 318.18 65.8576C318.608 67.1155 318.825 68.5025 318.825 70.009V71.573H303.445V72.563C303.445 73.4717 303.589 74.3135 303.882 75.0978C304.171 75.8822 304.589 76.5613 305.127 77.14C305.666 77.7188 306.329 78.1731 307.118 78.5031C307.906 78.8331 308.796 78.9957 309.791 78.9957C311.147 78.9957 312.325 78.6801 313.334 78.0488C314.344 77.4174 315.123 76.5087 315.676 75.3274L318.041 77.03C317.349 78.4983 316.272 79.6797 314.805 80.5788C313.339 81.478 311.599 81.9276 309.579 81.9276H309.575ZM309.575 62.4188C308.661 62.4188 307.834 62.5767 307.089 62.8923C306.344 63.208 305.699 63.6528 305.161 64.2267C304.623 64.8006 304.199 65.475 303.897 66.2546C303.594 67.0342 303.44 67.8855 303.44 68.8181V69.1051H315.257V68.6555C315.257 66.7711 314.738 65.2598 313.704 64.1263C312.666 62.9928 311.291 62.4236 309.579 62.4236L309.575 62.4188Z" fill="black"/>
</g>
<defs>
<clipPath id="clip0_1844_1507">
<rect width="318.821" height="94.2818" fill="white" transform="translate(0 -0.000457764)"/>
</clipPath>
</defs>
</svg>
