<svg width="24" height="24" viewBox="0 0 24 24" fill="none" xmlns="http://www.w3.org/2000/svg">
<path opacity="0.8" d="M7.20747 17.3335C7.64366 16.3059 8.66205 15.5851 9.84879 15.5851H14.151C15.3377 15.5851 16.3561 16.3059 16.7923 17.3336M14.868 10.2074C14.868 11.7914 13.5839 13.0755 11.9999 13.0755C10.4159 13.0755 9.13176 11.7914 9.13176 10.2074C9.13176 8.62341 10.4159 7.33931 11.9999 7.33931C13.5839 7.33931 14.868 8.62341 14.868 10.2074ZM19.1702 12C19.1702 15.96 15.9599 19.1703 11.9999 19.1703C8.03984 19.1703 4.82959 15.96 4.82959 12C4.82959 8.03996 8.03984 4.82971 11.9999 4.82971C15.9599 4.82971 19.1702 8.03996 19.1702 12Z" stroke="black" stroke-width="1.5" stroke-linecap="round" stroke-linejoin="round"/>
</svg>
