<svg width="320" height="80" viewBox="0 0 320 80" fill="none" xmlns="http://www.w3.org/2000/svg">
<path d="M308.563 18.6961V64.4241H301.664V18.6961H308.563Z" fill="white"/>
<path d="M261.501 64.4241H254.177L270.633 18.6961H278.604L295.06 64.4241H287.736L274.809 27.0022H274.451L261.501 64.4241ZM262.729 46.5169H286.486V52.3222H262.729V46.5169Z" fill="white"/>
<path d="M218.341 65.1162C214.962 65.1162 212.052 64.3943 209.61 62.9504C207.184 61.4916 205.309 59.4449 203.984 56.8102C202.674 54.1606 202.019 51.057 202.019 47.4994C202.019 43.9864 202.674 40.8903 203.984 38.2109C205.309 35.5315 207.154 33.4401 209.521 31.9367C211.903 30.4333 214.686 29.6815 217.872 29.6815C219.807 29.6815 221.683 30.0016 223.499 30.6417C225.315 31.2817 226.945 32.2865 228.388 33.6559C229.832 35.0254 230.971 36.8042 231.805 38.9924C232.638 41.1656 233.055 43.8078 233.055 46.9188V49.2856H205.792V44.2841H226.513C226.513 42.5276 226.156 40.9721 225.441 39.6176C224.727 38.2481 223.722 37.1689 222.427 36.38C221.147 35.5911 219.643 35.1966 217.917 35.1966C216.041 35.1966 214.404 35.658 213.004 36.5809C211.62 37.4889 210.548 38.6798 209.789 40.1534C209.045 41.6122 208.673 43.1975 208.673 44.9093V48.8167C208.673 51.1091 209.075 53.0591 209.878 54.6667C210.697 56.2743 211.836 57.5024 213.295 58.3508C214.753 59.1844 216.458 59.6012 218.408 59.6012C219.673 59.6012 220.827 59.4226 221.869 59.0653C222.911 58.6932 223.811 58.1424 224.57 57.413C225.329 56.6837 225.91 55.7831 226.312 54.7113L232.631 55.8501C232.125 57.7108 231.217 59.3407 229.907 60.7399C228.612 62.1243 226.982 63.2035 225.017 63.9775C223.067 64.7367 220.842 65.1162 218.341 65.1162Z" fill="white"/>
<path d="M187.902 64.4241V30.1281H194.578V64.4241H187.902ZM191.274 24.8364C190.112 24.8364 189.115 24.4493 188.282 23.6753C187.463 22.8864 187.054 21.9486 187.054 20.8619C187.054 19.7604 187.463 18.8226 188.282 18.0486C189.115 17.2597 190.112 16.8652 191.274 16.8652C192.435 16.8652 193.424 17.2597 194.243 18.0486C195.077 18.8226 195.494 19.7604 195.494 20.8619C195.494 21.9486 195.077 22.8864 194.243 23.6753C193.424 24.4493 192.435 24.8364 191.274 24.8364Z" fill="white"/>
<path d="M163.771 64.4241V30.1281H170.224V35.5762H170.581C171.206 33.7304 172.308 32.2791 173.886 31.2222C175.478 30.1504 177.279 29.6146 179.289 29.6146C179.706 29.6146 180.197 29.6294 180.763 29.6592C181.343 29.689 181.797 29.7262 182.125 29.7709V36.1567C181.857 36.0823 181.38 36.0004 180.696 35.9111C180.011 35.8069 179.326 35.7548 178.641 35.7548C177.064 35.7548 175.657 36.0897 174.421 36.7596C173.201 37.4145 172.233 38.33 171.519 39.5059C170.804 40.667 170.447 41.9918 170.447 43.4803V64.4241H163.771Z" fill="white"/>
<path d="M148.102 50.2011V30.1281H154.801V64.4241H148.236V58.4848H147.879C147.09 60.3157 145.825 61.8415 144.083 63.0621C142.356 64.2678 140.205 64.8706 137.63 64.8706C135.427 64.8706 133.477 64.3869 131.78 63.4193C130.098 62.4369 128.773 60.9856 127.806 59.0653C126.853 57.1451 126.377 54.7709 126.377 51.9427V30.1281H133.053V51.1389C133.053 53.4759 133.701 55.3365 134.996 56.7209C136.291 58.1052 137.973 58.7974 140.042 58.7974C141.292 58.7974 142.535 58.4848 143.77 57.8596C145.021 57.2344 146.055 56.2892 146.874 55.0239C147.708 53.7587 148.117 52.1511 148.102 50.2011Z" fill="white"/>
<path d="M118.657 33.5666H111.691C111.423 32.0781 110.924 30.7682 110.195 29.6369C109.465 28.5056 108.572 27.5455 107.515 26.7566C106.458 25.9676 105.275 25.3722 103.965 24.9703C102.67 24.5684 101.293 24.3675 99.8344 24.3675C97.1997 24.3675 94.8403 25.0299 92.7564 26.3547C90.6873 27.6795 89.0499 29.622 87.8442 32.1823C86.6534 34.7426 86.0579 37.8685 86.0579 41.5601C86.0579 45.2815 86.6534 48.4223 87.8442 50.9826C89.0499 53.5428 90.6947 55.478 92.7787 56.7879C94.8627 58.0978 97.2071 58.7527 99.8121 58.7527C101.256 58.7527 102.625 58.5592 103.92 58.1722C105.23 57.7703 106.414 57.1823 107.471 56.4083C108.527 55.6342 109.421 54.689 110.15 53.5726C110.894 52.4413 111.408 51.1463 111.691 49.6875L118.657 49.7099C118.285 51.9576 117.563 54.0266 116.491 55.9171C115.434 57.7926 114.072 59.4151 112.405 60.7846C110.753 62.1392 108.862 63.1886 106.734 63.9329C104.605 64.6771 102.283 65.0493 99.7674 65.0493C95.8079 65.0493 92.28 64.1115 89.1839 62.2359C86.0877 60.3455 83.6465 57.6438 81.8603 54.1308C80.0889 50.6179 79.2032 46.4276 79.2032 41.5601C79.2032 36.6777 80.0963 32.4874 81.8826 28.9894C83.6688 25.4764 86.11 22.7822 89.2062 20.9066C92.3024 19.0162 95.8228 18.0709 99.7674 18.0709C102.194 18.0709 104.456 18.4207 106.555 19.1204C108.669 19.8051 110.567 20.8173 112.249 22.157C113.931 23.4818 115.323 25.1043 116.424 27.0245C117.526 28.9298 118.27 31.1105 118.657 33.5666Z" fill="white"/>
<path d="M18.4296 40.3421C19.615 40.3424 20.5759 41.3031 20.5761 42.4886V45.7093H23.7968C24.9824 45.7095 25.9442 46.6711 25.9442 47.8567C25.9441 48.9683 25.0991 49.8825 24.0165 49.9925L23.7968 50.0042H20.5761V53.2249C20.5758 54.4103 19.615 55.372 18.4296 55.3724C17.2439 55.3724 16.2824 54.4105 16.2821 53.2249V50.0042H13.0614C11.8757 50.0042 10.9142 49.0424 10.914 47.8567C10.914 46.6709 11.8756 45.7093 13.0614 45.7093H16.2821V42.4886C16.2823 41.3029 17.2439 40.3421 18.4296 40.3421ZM36.6806 10.2815C37.5686 10.2818 38.3656 10.8287 38.6845 11.6575L42.4081 21.3392C43.0529 23.0156 43.2559 23.4991 43.5331 23.889C43.8112 24.28 44.1528 24.6226 44.5439 24.9007C44.9337 25.1778 45.4182 25.3809 47.0946 26.0257L56.7753 29.7493C57.6043 30.0683 58.1523 30.8649 58.1523 31.7532C58.1521 32.6414 57.6043 33.4382 56.7753 33.7571L47.0946 37.4808C45.4177 38.1257 44.9338 38.3285 44.5439 38.6058C44.1528 38.8838 43.8112 39.2255 43.5331 39.6165C43.2559 40.0064 43.0531 40.4903 42.4081 42.1673L38.6845 51.8479C38.3656 52.6768 37.5687 53.2246 36.6806 53.2249C35.7923 53.2249 34.9947 52.6769 34.6757 51.8479L30.953 42.1673C30.3082 40.4908 30.1051 40.0063 29.828 39.6165C29.5499 39.2254 29.2073 38.8839 28.8163 38.6058C28.4265 38.3286 27.943 38.1255 26.2665 37.4808L16.5849 33.7571C15.7558 33.4382 15.2091 32.6415 15.2089 31.7532C15.2089 30.8648 15.7557 30.0683 16.5849 29.7493L26.2665 26.0257C27.9431 25.3808 28.4265 25.1779 28.8163 24.9007C29.2075 24.6225 29.5499 24.2801 29.828 23.889C30.1051 23.4991 30.3083 23.0154 30.953 21.3392L34.6757 11.6575C34.9947 10.8284 35.7922 10.2815 36.6806 10.2815ZM18.4296 8.13408C19.6152 8.1344 20.5761 9.09589 20.5761 10.2815V13.5022H23.7968C24.9825 13.5024 25.9442 14.464 25.9442 15.6497C25.9439 16.8352 24.9823 17.796 23.7968 17.7962H20.5761V21.0169C20.5759 22.2024 19.6151 23.164 18.4296 23.1644C17.2439 23.1644 16.2823 22.2026 16.2821 21.0169V17.7962H13.0614C11.8758 17.7962 10.9143 16.8353 10.914 15.6497C10.914 14.4639 11.8756 13.5022 13.0614 13.5022H16.2821V10.2815C16.2821 9.0957 17.2438 8.13408 18.4296 8.13408Z" fill="white"/>
</svg>
