<svg width="81" height="80" viewBox="0 0 81 80" fill="none" xmlns="http://www.w3.org/2000/svg">
<g filter="url(#filter0_d_1846_3041)">
<path d="M18.3716 50.8564C20.0112 50.8564 21.3404 52.1855 21.3404 53.8251V58.2782H25.7935L25.9468 58.2821C27.5153 58.3619 28.7623 59.6587 28.7623 61.247C28.7622 62.8352 27.5152 64.1321 25.9468 64.2118L25.7935 64.2157H21.3404V68.6689C21.3404 70.3084 20.0112 71.6376 18.3716 71.6376C16.7321 71.6375 15.4029 70.3084 15.4029 68.6689V64.2157H10.9498C9.3102 64.2157 7.9811 62.8865 7.98102 61.247C7.98102 59.6074 9.31015 58.2782 10.9498 58.2782H15.4029V53.8251C15.4029 52.1855 16.7321 50.8564 18.3716 50.8564ZM43.607 9.29288C44.8352 9.29311 45.9366 10.0498 46.3775 11.1962L51.5259 24.5819C52.4177 26.9006 52.6983 27.5692 53.0816 28.1083C53.4661 28.6489 53.9385 29.1213 54.4791 29.5058C55.0182 29.8891 55.6869 30.1697 58.0054 31.0614L71.3912 36.2099C72.5375 36.6508 73.2943 37.7522 73.2945 38.9804C73.2945 40.2088 72.5377 41.3109 71.3912 41.7519L58.0054 46.9003C55.6869 47.7921 55.0182 48.0727 54.4791 48.456C53.9385 48.8404 53.4661 49.3128 53.0816 49.8534C52.6983 50.3925 52.4177 51.0611 51.5259 53.3798L46.3775 66.7655C45.9366 67.9119 44.8352 68.6686 43.607 68.6689C42.3786 68.6689 41.2765 67.912 40.8355 66.7655L35.6871 53.3798C34.7953 51.0612 34.5147 50.3925 34.1314 49.8534C33.7469 49.3128 33.2745 48.8404 32.7339 48.456C32.1949 48.0726 31.5262 47.7921 29.2076 46.9003L15.8218 41.7519C14.6753 41.3109 13.9185 40.2088 13.9185 38.9804C13.9187 37.7522 14.6755 36.6508 15.8218 36.2099L29.2076 31.0614C31.5262 30.1696 32.1949 29.8891 32.7339 29.5058C33.2745 29.1213 33.7469 28.6489 34.1314 28.1083C34.5147 27.5692 34.7953 26.9005 35.6871 24.5819L40.8355 11.1962L40.9263 10.9853C41.4153 9.95772 42.4556 9.29288 43.607 9.29288ZM18.3716 6.32413C20.0112 6.32418 21.3404 7.65329 21.3404 9.29288V13.746H25.7935C27.4331 13.7461 28.7622 15.0752 28.7623 16.7148C28.7623 18.3543 27.4331 19.6834 25.7935 19.6835H21.3404V24.1366C21.3404 25.7762 20.0112 27.1053 18.3716 27.1054C16.7321 27.1053 15.4029 25.7762 15.4029 24.1366V19.6835H10.9498C9.31015 19.6835 7.98102 18.3544 7.98102 16.7148C7.98108 15.0752 9.31019 13.746 10.9498 13.746H15.4029V9.29288C15.4029 7.6533 16.7321 6.32419 18.3716 6.32413Z" fill="url(#paint0_linear_1846_3041)"/>
</g>
<defs>
<filter id="filter0_d_1846_3041" x="7.98102" y="6.32413" width="65.3135" height="70.747" filterUnits="userSpaceOnUse" color-interpolation-filters="sRGB">
<feFlood flood-opacity="0" result="BackgroundImageFix"/>
<feColorMatrix in="SourceAlpha" type="matrix" values="0 0 0 0 0 0 0 0 0 0 0 0 0 0 0 0 0 0 127 0" result="hardAlpha"/>
<feOffset dy="5.43351"/>
<feComposite in2="hardAlpha" operator="out"/>
<feColorMatrix type="matrix" values="0 0 0 0 1 0 0 0 0 1 0 0 0 0 1 0 0 0 1 0"/>
<feBlend mode="normal" in2="BackgroundImageFix" result="effect1_dropShadow_1846_3041"/>
<feBlend mode="normal" in="SourceGraphic" in2="effect1_dropShadow_1846_3041" result="shape"/>
</filter>
<linearGradient id="paint0_linear_1846_3041" x1="40.6377" y1="6.32413" x2="40.6377" y2="71.6374" gradientUnits="userSpaceOnUse">
<stop stop-color="#1F1880"/>
<stop offset="1" stop-color="#4F46CB"/>
</linearGradient>
</defs>
</svg>
