<svg width="95" height="95" viewBox="0 0 95 95" fill="none" xmlns="http://www.w3.org/2000/svg">
<g clip-path="url(#clip0_1844_1532)">
<path d="M0 0.281311V94.5631H94.7752V0.281311H0ZM55.7218 66.345C54.0247 68.6934 51.717 70.4869 48.7891 71.7352C45.866 72.9834 42.5823 73.6052 38.9476 73.6052C33.2456 73.6052 28.5773 72.2852 24.9378 69.6451C21.2983 67.0051 19.0627 63.2411 18.2262 58.3483H24.4186C25.2551 61.7201 26.8994 64.2789 29.3561 66.015C31.8129 67.7512 35.0341 68.6168 39.0149 68.6168C42.9957 68.6168 45.9573 67.7272 48.3419 65.9385C50.7266 64.1545 51.9189 61.7967 51.9189 58.8601C51.9189 56.3157 51.217 54.3021 49.8179 52.8099C48.4189 51.3177 46.241 50.2799 43.2938 49.6916L31.0533 47.1998C27.0724 46.4202 24.1109 45.038 22.1685 43.058C20.2262 41.0779 19.255 38.3039 19.255 34.7312C19.255 31.8473 20.1156 29.3889 21.8368 27.3611C23.558 25.3332 25.8561 23.8027 28.7311 22.7792C31.6062 21.7509 34.7649 21.2392 38.2072 21.2392C43.515 21.2392 47.7939 22.4397 51.0343 24.831C54.2795 27.2272 56.2218 30.6755 56.8613 35.1713H50.6689C50.0775 32.139 48.6881 29.8768 46.5054 28.3846C44.3179 26.8924 41.5053 26.1463 38.063 26.1463C34.3754 26.1463 31.3754 26.8685 29.0677 28.3081C26.7551 29.7524 25.6013 31.766 25.6013 34.3582C25.6013 36.6061 26.1782 38.3326 27.3321 39.5283C28.4859 40.7288 30.3658 41.5945 32.9716 42.1301L45.7986 44.6984C50.0247 45.5306 53.1593 47.0228 55.1978 49.1703C57.2363 51.3225 58.2555 54.3021 58.2555 58.1188C58.2555 61.2467 57.4094 63.9872 55.7122 66.3355L55.7218 66.345ZM76.549 73.0935H70.2797V40.3796H63.4239V35.463H76.549V73.0887V73.0935Z" fill="black"/>
</g>
<defs>
<clipPath id="clip0_1844_1532">
<rect width="94.28" height="94.2818" fill="white" transform="translate(0 0.281311)"/>
</clipPath>
</defs>
</svg>
