<svg width="319" height="95" viewBox="0 0 319 95" fill="none" xmlns="http://www.w3.org/2000/svg">
<g clip-path="url(#clip0_1844_1453)">
<path d="M0 0V94.2818H94.7752V0H0ZM55.7218 66.0637C54.0247 68.412 51.717 70.2056 48.7891 71.4538C45.866 72.7021 42.5823 73.3239 38.9476 73.3239C33.2456 73.3239 28.5773 72.0039 24.9378 69.3638C21.2983 66.7237 19.0627 62.9597 18.2262 58.067H24.4186C25.2551 61.4388 26.8994 63.9976 29.3561 65.7337C31.8129 67.4698 35.0341 68.3355 39.0149 68.3355C42.9957 68.3355 45.9573 67.4459 48.3419 65.6572C50.7266 63.8732 51.9189 61.5154 51.9189 58.5788C51.9189 56.0344 51.217 54.0208 49.8179 52.5286C48.4189 51.0364 46.241 49.9986 43.2938 49.4103L31.0533 46.9185C27.0724 46.1389 24.1109 44.7567 22.1685 42.7767C20.2262 40.7966 19.255 38.0226 19.255 34.4499C19.255 31.566 20.1156 29.1076 21.8368 27.0798C23.558 25.0519 25.8561 23.5214 28.7311 22.4979C31.6062 21.4696 34.7649 20.9579 38.2072 20.9579C43.515 20.9579 47.7939 22.1583 51.0343 24.5497C54.2795 26.9459 56.2218 30.3942 56.8613 34.8899H50.6689C50.0775 31.8577 48.6881 29.5955 46.5054 28.1033C44.3179 26.6111 41.5053 25.865 38.063 25.865C34.3754 25.865 31.3754 26.5871 29.0677 28.0267C26.7551 29.4711 25.6013 31.4847 25.6013 34.0769C25.6013 36.3248 26.1782 38.0513 27.3321 39.247C28.4859 40.4475 30.3658 41.3131 32.9716 41.8488L45.7986 44.4171C50.0247 45.2493 53.1593 46.7415 55.1978 48.889C57.2363 51.0412 58.2555 54.0208 58.2555 57.8374C58.2555 60.9653 57.4094 63.7058 55.7122 66.0542L55.7218 66.0637ZM76.549 72.8121H70.2797V40.0983H63.4239V35.1817H76.549V72.8074V72.8121Z" fill="white"/>
<path d="M126.319 42.0114C123.968 42.0114 121.963 41.5619 120.309 40.6723C118.651 39.7779 117.242 38.5487 116.079 36.98L118.651 34.8374C119.675 36.1861 120.805 37.2096 122.05 37.9079C123.295 38.6109 124.757 38.9601 126.444 38.9601C128.516 38.9601 130.098 38.4674 131.189 37.4774C132.281 36.4874 132.829 35.1674 132.829 33.5173C132.829 32.1447 132.415 31.0829 131.584 30.3416C130.757 29.6003 129.386 29.0072 127.478 28.5672L125.112 28.0315C122.459 27.4289 120.434 26.5106 119.04 25.291C117.646 24.0667 116.944 22.3401 116.944 20.1161C116.944 18.8535 117.18 17.7248 117.651 16.7348C118.122 15.7447 118.776 14.9221 119.622 14.2621C120.468 13.6021 121.473 13.0999 122.651 12.7555C123.824 12.4112 125.117 12.239 126.526 12.239C128.709 12.239 130.584 12.636 132.146 13.4347C133.709 14.2334 135.026 15.4004 136.108 16.9404L133.497 18.8392C132.694 17.7391 131.728 16.8735 130.593 16.2421C129.459 15.6108 128.05 15.2952 126.362 15.2952C124.511 15.2952 123.05 15.6873 121.987 16.4717C120.925 17.2561 120.391 18.4326 120.391 19.9966C120.391 21.374 120.838 22.4118 121.737 23.1101C122.636 23.8132 123.997 24.368 125.819 24.7793L128.185 25.315C131.031 25.9463 133.093 26.9124 134.362 28.2037C135.632 29.4951 136.271 31.2168 136.271 33.3595C136.271 34.6795 136.045 35.8752 135.588 36.9465C135.132 38.0179 134.473 38.9266 133.617 39.6679C132.762 40.4092 131.718 40.9879 130.487 41.3992C129.257 41.8106 127.867 42.0162 126.319 42.0162V42.0114Z" fill="white"/>
<path d="M153.848 38.0895H153.684C153.463 38.5822 153.194 39.0652 152.877 39.5387C152.559 40.017 152.165 40.4379 151.694 40.8061C151.223 41.1744 150.655 41.4662 149.992 41.6862C149.328 41.9062 148.554 42.0114 147.67 42.0114C145.458 42.0114 143.703 41.3035 142.405 39.8879C141.107 38.4722 140.458 36.473 140.458 33.8855V20.2356H143.776V33.3403C143.776 37.1713 145.405 39.0844 148.67 39.0844C149.333 39.0844 149.978 39.003 150.598 38.8357C151.218 38.673 151.771 38.4243 152.256 38.0895C152.742 37.7595 153.127 37.3387 153.42 36.8269C153.708 36.3152 153.857 35.703 153.857 34.9856V20.2309H157.175V41.514H153.857V38.0895H153.848Z" fill="white"/>
<path d="M162.925 20.2309H166.242V23.6553H166.406C166.959 22.3209 167.767 21.3357 168.834 20.6948C169.896 20.0539 171.175 19.7335 172.67 19.7335C173.997 19.7335 175.199 19.9965 176.276 20.5178C177.353 21.0392 178.271 21.7853 179.031 22.7466C179.791 23.7079 180.372 24.8797 180.771 26.2523C181.171 27.6297 181.372 29.165 181.372 30.8724C181.372 32.5799 181.171 34.1151 180.771 35.4925C180.372 36.87 179.791 38.0369 179.031 38.9983C178.271 39.9596 177.353 40.7057 176.276 41.227C175.199 41.7483 173.997 42.0114 172.67 42.0114C169.767 42.0114 167.68 40.7057 166.411 38.0896H166.247V49.7642H162.93V20.2309H162.925ZM171.757 39.0796C173.637 39.0796 175.118 38.4913 176.195 37.3195C177.271 36.143 177.81 34.603 177.81 32.6946V29.0454C177.81 27.1371 177.271 25.5971 176.195 24.4253C175.118 23.2488 173.637 22.6653 171.757 22.6653C171.012 22.6653 170.3 22.7705 169.622 22.9762C168.944 23.1818 168.358 23.4688 167.858 23.8275C167.363 24.1862 166.968 24.6214 166.675 25.1332C166.387 25.6449 166.238 26.1901 166.238 26.7689V34.7273C166.238 35.416 166.382 36.033 166.675 36.5734C166.968 37.1139 167.358 37.5682 167.858 37.9413C168.358 38.3143 168.944 38.5965 169.622 38.7926C170.3 38.9839 171.012 39.0844 171.757 39.0844V39.0796Z" fill="white"/>
<path d="M185.69 41.514V20.2309H189.007V24.1479H189.214C189.598 23.1292 190.291 22.2253 191.286 21.4265C192.281 20.6278 193.646 20.2309 195.392 20.2309H196.675V23.5309H194.728C192.93 23.5309 191.526 23.8657 190.521 24.5401C189.512 25.2145 189.007 26.061 189.007 27.0749V41.5092H185.69V41.514Z" fill="white"/>
<path d="M207.454 42.0114C205.988 42.0114 204.67 41.7483 203.493 41.227C202.32 40.7057 201.31 39.9548 200.464 38.9791C199.622 38.0035 198.968 36.8365 198.517 35.4734C198.06 34.1103 197.834 32.5799 197.834 30.8724C197.834 29.165 198.06 27.668 198.517 26.2954C198.973 24.9227 199.622 23.7462 200.464 22.7705C201.305 21.7948 202.315 21.0439 203.493 20.5226C204.666 20.0013 205.988 19.7383 207.454 19.7383C208.921 19.7383 210.175 19.9965 211.31 20.5178C212.445 21.0392 213.411 21.7566 214.214 22.6748C215.017 23.5931 215.627 24.6836 216.06 25.9414C216.488 27.2041 216.704 28.5863 216.704 30.0928V31.6568H201.324V32.6468C201.324 33.5555 201.469 34.3973 201.762 35.1817C202.05 35.966 202.469 36.6452 203.007 37.2239C203.545 37.8026 204.209 38.2569 204.997 38.587C205.786 38.917 206.675 39.0796 207.671 39.0796C209.026 39.0796 210.204 38.7639 211.214 38.1326C212.223 37.5013 213.002 36.5926 213.555 35.4112L215.921 37.1139C215.228 38.5822 214.151 39.7635 212.685 40.6627C211.219 41.5618 209.478 42.0114 207.459 42.0114H207.454ZM207.454 22.4979C206.541 22.4979 205.714 22.6557 204.969 22.9714C204.223 23.287 203.579 23.7318 203.041 24.3057C202.502 24.8797 202.079 25.554 201.776 26.3336C201.473 27.1132 201.319 27.9645 201.319 28.8972V29.1841H213.137V28.7345C213.137 26.8502 212.618 25.3388 211.584 24.2053C210.55 23.0718 209.171 22.5027 207.459 22.5027L207.454 22.4979Z" fill="white"/>
<path d="M220.887 41.514V20.2309H224.204V23.6553H224.368C224.618 23.1101 224.902 22.6031 225.219 22.1248C225.536 21.6466 225.926 21.2352 226.382 20.8813C226.839 20.5274 227.368 20.25 227.978 20.0443C228.584 19.8387 229.305 19.7383 230.137 19.7383C231.546 19.7383 232.844 20.073 234.036 20.7378C235.224 21.4074 236.108 22.5027 236.69 24.0284H236.772C237.156 22.8853 237.882 21.8809 238.95 21.0248C240.012 20.1687 241.459 19.7383 243.282 19.7383C245.464 19.7383 247.171 20.4461 248.402 21.8618C249.633 23.2775 250.248 25.2766 250.248 27.8641V41.514H246.931V28.4093C246.931 26.5058 246.556 25.0758 245.81 24.1097C245.065 23.1435 243.878 22.6605 242.243 22.6605C241.58 22.6605 240.95 22.7418 240.358 22.9092C239.762 23.0766 239.233 23.3205 238.762 23.6553C238.291 23.9853 237.921 24.4062 237.642 24.9179C237.363 25.4297 237.229 26.0275 237.229 26.7162V41.514H233.911V28.4093C233.911 26.5058 233.536 25.0758 232.791 24.1097C232.046 23.1435 230.882 22.6605 229.31 22.6605C228.647 22.6605 228.012 22.7418 227.402 22.9092C226.791 23.0766 226.252 23.3205 225.786 23.6553C225.315 23.9853 224.935 24.4062 224.647 24.9179C224.358 25.4297 224.209 26.0275 224.209 26.7162V41.514H220.892H220.887Z" fill="white"/>
<path d="M263.84 42.0114C262.373 42.0114 261.056 41.7483 259.878 41.227C258.705 40.7057 257.695 39.9548 256.849 38.9791C256.008 38.0035 255.359 36.8365 254.902 35.4734C254.445 34.1103 254.219 32.5799 254.219 30.8724C254.219 29.165 254.445 27.668 254.902 26.2954C255.359 24.9227 256.008 23.7462 256.849 22.7705C257.69 21.7948 258.7 21.0439 259.878 20.5226C261.051 20.0013 262.373 19.7383 263.84 19.7383C265.306 19.7383 266.561 19.9965 267.695 20.5178C268.83 21.0392 269.796 21.7566 270.599 22.6748C271.402 23.5931 272.018 24.6836 272.445 25.9414C272.873 27.2041 273.09 28.5863 273.09 30.0928V31.6568H257.71V32.6468C257.71 33.5555 257.854 34.3973 258.147 35.1817C258.436 35.966 258.854 36.6452 259.392 37.2239C259.931 37.8026 260.594 38.2569 261.383 38.587C262.171 38.917 263.061 39.0796 264.056 39.0796C265.412 39.0796 266.59 38.7639 267.599 38.1326C268.609 37.5013 269.388 36.5926 269.941 35.4112L272.306 37.1139C271.614 38.5822 270.537 39.7635 269.07 40.6627C267.604 41.5618 265.864 42.0114 263.844 42.0114H263.84ZM263.84 22.4979C262.926 22.4979 262.099 22.6557 261.354 22.9714C260.609 23.287 259.964 23.7318 259.426 24.3057C258.888 24.8797 258.464 25.554 258.162 26.3336C257.859 27.1132 257.705 27.9645 257.705 28.8972V29.1841H269.522V28.7345C269.522 26.8502 269.003 25.3388 267.969 24.2053C266.936 23.0718 265.556 22.5027 263.844 22.5027L263.84 22.4979Z" fill="white"/>
<path d="M116.072 81.4354V78.5466H120.135V55.5322H116.072V52.6434H127.683V55.5322H123.62V78.5466H127.683V81.4354H116.072Z" fill="white"/>
<path d="M132.409 81.4354V60.1523H135.726V63.5767H135.89C136.414 62.381 137.154 61.4245 138.106 60.7166C139.058 60.0088 140.337 59.6549 141.943 59.6549C144.154 59.6549 145.904 60.3627 147.188 61.7784C148.472 63.1941 149.116 65.1933 149.116 67.7807V81.4306H145.799V68.326C145.799 64.495 144.183 62.5819 140.948 62.5819C140.284 62.5819 139.64 62.6632 139.02 62.8306C138.399 62.998 137.837 63.2419 137.342 63.5767C136.847 63.9067 136.452 64.3276 136.159 64.8393C135.871 65.3511 135.722 65.9489 135.722 66.6377V81.4354H132.404H132.409Z" fill="white"/>
<path d="M159.4 81.4354C158.241 81.4354 157.361 81.1149 156.765 80.4693C156.169 79.8236 155.876 78.9818 155.876 77.9392V63.0841H152.352V60.157H154.342C155.058 60.157 155.549 60.0136 155.813 59.7218C156.078 59.4349 156.207 58.9327 156.207 58.2153V54.2552H159.193V60.1523H163.881V63.0793H159.193V78.5036H163.544V81.4306H159.4V81.4354Z" fill="white"/>
<path d="M175.818 81.928C174.352 81.928 173.034 81.665 171.857 81.1436C170.683 80.6223 169.674 79.8714 168.828 78.8958C167.986 77.9201 167.337 76.7531 166.881 75.39C166.424 74.027 166.198 72.4965 166.198 70.789C166.198 69.0816 166.424 67.5846 166.881 66.212C167.337 64.8393 167.986 63.6628 168.828 62.6871C169.669 61.7114 170.679 60.9606 171.857 60.4392C173.03 59.9179 174.352 59.6549 175.818 59.6549C177.284 59.6549 178.539 59.9131 179.674 60.4345C180.809 60.9558 181.775 61.6732 182.578 62.5915C183.381 63.5097 183.996 64.6002 184.424 65.8581C184.852 67.1207 185.068 68.5029 185.068 70.0095V71.5734H169.688V72.5634C169.688 73.4722 169.832 74.3139 170.126 75.0983C170.414 75.8827 170.832 76.5618 171.371 77.1405C171.909 77.7192 172.573 78.1736 173.361 78.5036C174.15 78.8336 175.039 78.9962 176.034 78.9962C177.39 78.9962 178.568 78.6805 179.578 78.0492C180.587 77.4179 181.366 76.5092 181.919 75.3279L184.285 77.0305C183.592 78.4988 182.515 79.6801 181.049 80.5793C179.583 81.4784 177.842 81.928 175.823 81.928H175.818ZM175.818 62.4193C174.905 62.4193 174.078 62.5771 173.333 62.8928C172.587 63.2084 171.943 63.6532 171.405 64.2272C170.866 64.8011 170.443 65.4754 170.14 66.255C169.837 67.0346 169.683 67.8859 169.683 68.8186V69.1055H181.501V68.656C181.501 66.7716 180.982 65.2602 179.948 64.1267C178.914 62.9932 177.534 62.4241 175.823 62.4241L175.818 62.4193Z" fill="white"/>
<path d="M192.775 81.4354C191.612 81.4354 190.737 81.1101 190.141 80.4645C189.544 79.8188 189.251 79.001 189.251 78.0109V50.912H192.568V78.5036H195.722V81.4306H192.78L192.775 81.4354Z" fill="white"/>
<path d="M202.564 81.4354C201.4 81.4354 200.525 81.1101 199.929 80.4645C199.333 79.8188 199.04 79.001 199.04 78.0109V50.912H202.357V78.5036H205.506V81.4306H202.564V81.4354Z" fill="white"/>
<path d="M210.689 55.1639C209.968 55.1639 209.453 54.9917 209.136 54.6473C208.819 54.303 208.66 53.8582 208.66 53.3082V52.7725C208.66 52.2225 208.819 51.7777 209.136 51.4333C209.453 51.089 209.972 50.9168 210.689 50.9168C211.405 50.9168 211.924 51.089 212.242 51.4333C212.559 51.7777 212.718 52.2225 212.718 52.7725V53.3082C212.718 53.8582 212.559 54.303 212.242 54.6473C211.924 54.9917 211.405 55.1639 210.689 55.1639ZM209.03 60.1522H212.348V81.4354H209.03V60.1522Z" fill="white"/>
<path d="M236.146 83.8076C236.146 85.9981 235.281 87.6098 233.555 88.6381C231.829 89.6664 229.237 90.1782 225.78 90.1782C222.324 90.1782 220.03 89.7238 218.564 88.8199C217.098 87.9112 216.367 86.6246 216.367 84.9459C216.367 83.7932 216.67 82.8941 217.28 82.2484C217.886 81.6028 218.718 81.1293 219.766 80.8279V80.3736C218.492 79.771 217.857 78.7857 217.857 77.4179C217.857 76.3513 218.203 75.5383 218.896 74.9739C219.588 74.4143 220.473 73.9934 221.55 73.7208V73.5582C220.28 72.9508 219.29 72.0851 218.588 70.9516C217.881 69.8229 217.53 68.5124 217.53 67.0202C217.53 65.9441 217.723 64.9493 218.112 64.0406C218.497 63.1319 219.045 62.3523 219.752 61.7018C220.458 61.0514 221.3 60.5492 222.28 60.1905C223.261 59.8318 224.362 59.6501 225.579 59.6501C227.098 59.6501 228.454 59.9275 229.641 60.4727V60.0996C229.641 59.2674 229.833 58.574 230.223 58.0287C230.607 57.4835 231.247 57.2109 232.131 57.2109H235.324V60.1379H231.261V61.501C232.035 62.1658 232.636 62.9549 233.064 63.878C233.492 64.8011 233.708 65.8437 233.708 67.0011C233.708 68.0772 233.516 69.0672 233.127 69.9807C232.737 70.8895 232.194 71.669 231.487 72.3195C230.781 72.9699 229.934 73.4721 228.939 73.8308C227.944 74.1895 226.838 74.3665 225.622 74.3665C224.929 74.3665 224.237 74.2995 223.55 74.1608C222.829 74.3521 222.179 74.6343 221.603 75.0074C221.021 75.3804 220.732 75.8922 220.732 76.5522C220.732 77.2122 221.035 77.6092 221.646 77.8292C222.252 78.0492 223.04 78.1592 224.011 78.1592H228.574C231.228 78.1592 233.156 78.6614 234.357 79.661C235.559 80.6606 236.16 82.038 236.16 83.7932L236.146 83.8076ZM233.035 84.0324C233.035 83.181 232.708 82.4971 232.059 81.9901C231.41 81.4832 230.256 81.2249 228.598 81.2249H221.468C220.141 81.8275 219.477 82.7936 219.477 84.1137C219.477 85.0463 219.828 85.845 220.535 86.505C221.242 87.1651 222.434 87.4951 224.122 87.4951H227.189C229.04 87.4951 230.478 87.2081 231.502 86.6294C232.526 86.0507 233.035 85.185 233.035 84.0324ZM225.612 71.7408C227.021 71.7408 228.141 71.4012 228.973 70.7268C229.805 70.0525 230.218 69.0098 230.218 67.5989V66.4367C230.218 65.0306 229.805 63.988 228.973 63.3088C228.141 62.6297 227.026 62.2949 225.612 62.2949C224.199 62.2949 223.083 62.6345 222.252 63.3088C221.425 63.9832 221.006 65.0306 221.006 66.4367V67.5989C221.006 69.0098 221.42 70.0477 222.252 70.7268C223.079 71.4012 224.199 71.7408 225.612 71.7408Z" fill="white"/>
<path d="M246.511 81.928C245.045 81.928 243.728 81.665 242.55 81.1436C241.377 80.6223 240.367 79.8714 239.521 78.8958C238.68 77.9201 238.031 76.7531 237.574 75.39C237.117 74.027 236.891 72.4965 236.891 70.789C236.891 69.0816 237.117 67.5846 237.574 66.212C238.031 64.8393 238.68 63.6628 239.521 62.6871C240.362 61.7114 241.372 60.9606 242.55 60.4392C243.723 59.9179 245.045 59.6549 246.511 59.6549C247.978 59.6549 249.233 59.9131 250.367 60.4345C251.502 60.9558 252.468 61.6732 253.271 62.5915C254.074 63.5097 254.689 64.6002 255.117 65.8581C255.545 67.1207 255.762 68.5029 255.762 70.0095V71.5734H240.382V72.5634C240.382 73.4722 240.526 74.3139 240.819 75.0983C241.108 75.8827 241.526 76.5618 242.064 77.1405C242.603 77.7192 243.266 78.1736 244.055 78.5036C244.843 78.8336 245.733 78.9962 246.728 78.9962C248.084 78.9962 249.261 78.6805 250.271 78.0492C251.281 77.4179 252.06 76.5092 252.612 75.3279L254.978 77.0305C254.286 78.4988 253.209 79.6801 251.742 80.5793C250.276 81.4784 248.535 81.928 246.516 81.928H246.511ZM246.511 62.4193C245.598 62.4193 244.771 62.5771 244.026 62.8928C243.281 63.2084 242.636 63.6532 242.098 64.2272C241.559 64.8011 241.136 65.4754 240.833 66.255C240.531 67.0346 240.377 67.8859 240.377 68.8186V69.1055H252.194V68.656C252.194 66.7716 251.675 65.2602 250.641 64.1267C249.608 62.9932 248.228 62.4241 246.516 62.4241L246.511 62.4193Z" fill="white"/>
<path d="M259.944 81.4354V60.1523H263.262V63.5767H263.43C263.954 62.381 264.694 61.4245 265.646 60.7166C266.598 60.0088 267.877 59.6549 269.483 59.6549C271.694 59.6549 273.444 60.3627 274.728 61.7784C276.012 63.1941 276.656 65.1933 276.656 67.7807V81.4306H273.339V68.326C273.339 64.495 271.723 62.5819 268.488 62.5819C267.824 62.5819 267.18 62.6632 266.56 62.8306C265.94 62.998 265.377 63.2419 264.882 63.5767C264.382 63.9067 263.992 64.3276 263.699 64.8393C263.411 65.3511 263.262 65.9489 263.262 66.6377V81.4354H259.944Z" fill="white"/>
<path d="M290.171 81.928C288.68 81.928 287.339 81.665 286.147 81.1437C284.959 80.6223 283.954 79.881 283.142 78.9149C282.324 77.9536 281.704 76.7866 281.276 75.4092C280.848 74.0365 280.632 72.4965 280.632 70.7891C280.632 69.0816 280.844 67.5464 281.276 66.169C281.704 64.7963 282.324 63.6245 283.142 62.6632C283.954 61.7019 284.959 60.9606 286.147 60.4345C287.334 59.9132 288.676 59.6501 290.171 59.6501C292.301 59.6501 294.007 60.1092 295.291 61.0323C296.575 61.9554 297.536 63.1558 298.171 64.6433L295.392 66.0446C295.003 64.9446 294.368 64.0933 293.483 63.4858C292.599 62.8832 291.493 62.5771 290.166 62.5771C289.171 62.5771 288.3 62.735 287.555 63.0506C286.81 63.3663 286.185 63.8063 285.69 64.3706C285.19 64.935 284.82 65.6094 284.57 66.3937C284.32 67.1781 284.199 68.039 284.199 68.9716V72.6017C284.199 74.4718 284.704 76.0022 285.714 77.2027C286.724 78.3984 288.209 78.9962 290.171 78.9962C292.853 78.9962 294.786 77.7575 295.974 75.2848L298.378 76.8918C297.685 78.4318 296.656 79.6562 295.286 80.5649C293.916 81.4737 292.209 81.928 290.166 81.928H290.171Z" fill="white"/>
<path d="M309.575 81.928C308.108 81.928 306.791 81.665 305.613 81.1436C304.435 80.6223 303.43 79.8714 302.584 78.8958C301.738 77.9201 301.089 76.7531 300.637 75.39C300.18 74.027 299.954 72.4965 299.954 70.789C299.954 69.0816 300.18 67.5846 300.637 66.212C301.094 64.8393 301.743 63.6628 302.584 62.6871C303.425 61.7114 304.435 60.9606 305.613 60.4392C306.786 59.9179 308.108 59.6549 309.575 59.6549C311.041 59.6549 312.296 59.9131 313.43 60.4345C314.565 60.9558 315.531 61.6732 316.334 62.5915C317.137 63.5097 317.753 64.6002 318.18 65.8581C318.608 67.1159 318.825 68.5029 318.825 70.0095V71.5734H303.445V72.5634C303.445 73.4722 303.589 74.3139 303.882 75.0983C304.171 75.8827 304.589 76.5618 305.127 77.1405C305.666 77.7192 306.329 78.1736 307.118 78.5036C307.906 78.8336 308.796 78.9962 309.791 78.9962C311.147 78.9962 312.325 78.6805 313.334 78.0492C314.344 77.4179 315.123 76.5092 315.676 75.3279L318.041 77.0305C317.349 78.4988 316.272 79.6801 314.805 80.5793C313.339 81.4784 311.599 81.928 309.579 81.928H309.575ZM309.575 62.4193C308.661 62.4193 307.834 62.5771 307.089 62.8928C306.344 63.2084 305.699 63.6532 305.161 64.2272C304.623 64.8011 304.199 65.4754 303.897 66.255C303.594 67.0346 303.44 67.8859 303.44 68.8186V69.1055H315.257V68.656C315.257 66.7716 314.738 65.2602 313.704 64.1267C312.666 62.9932 311.291 62.4241 309.579 62.4241L309.575 62.4193Z" fill="white"/>
</g>
<defs>
<clipPath id="clip0_1844_1453">
<rect width="318.821" height="94.2818" fill="white"/>
</clipPath>
</defs>
</svg>
