<svg width="95" height="95" viewBox="0 0 95 95" fill="none" xmlns="http://www.w3.org/2000/svg">
<g clip-path="url(#clip0_1844_1347)">
<path d="M0 0.281769V94.5635H94.7752V0.281769H0ZM55.7218 66.3455C54.0247 68.6938 51.717 70.4873 48.7891 71.7356C45.866 72.9839 42.5823 73.6057 38.9476 73.6057C33.2456 73.6057 28.5773 72.2856 24.9378 69.6456C21.2983 67.0055 19.0627 63.2415 18.2262 58.3488H24.4186C25.2551 61.7206 26.8994 64.2794 29.3561 66.0155C31.8129 67.7516 35.0341 68.6173 39.0149 68.6173C42.9957 68.6173 45.9573 67.7277 48.3419 65.939C50.7266 64.155 51.9189 61.7971 51.9189 58.8605C51.9189 56.3161 51.217 54.3026 49.8179 52.8104C48.4189 51.3182 46.241 50.2803 43.2938 49.6921L31.0533 47.2003C27.0724 46.4207 24.1109 45.0385 22.1685 43.0584C20.2262 41.0784 19.255 38.3044 19.255 34.7317C19.255 31.8477 20.1156 29.3894 21.8368 27.3615C23.558 25.3337 25.8561 23.8032 28.7311 22.7797C31.6062 21.7514 34.7649 21.2397 38.2072 21.2397C43.515 21.2397 47.7939 22.4401 51.0343 24.8315C54.2795 27.2276 56.2218 30.676 56.8613 35.1717H50.6689C50.0775 32.1395 48.6881 29.8772 46.5054 28.385C44.3179 26.8928 41.5053 26.1467 38.063 26.1467C34.3754 26.1467 31.3754 26.8689 29.0677 28.3085C26.7551 29.7529 25.6013 31.7664 25.6013 34.3587C25.6013 36.6065 26.1782 38.3331 27.3321 39.5288C28.4859 40.7292 30.3658 41.5949 32.9716 42.1306L45.7986 44.6989C50.0247 45.5311 53.1593 47.0233 55.1978 49.1707C57.2363 51.323 58.2555 54.3026 58.2555 58.1192C58.2555 61.2471 57.4094 63.9876 55.7122 66.3359L55.7218 66.3455ZM76.549 73.0939H70.2797V40.3801H63.4239V35.4635H76.549V73.0891V73.0939Z" fill="url(#paint0_radial_1844_1347)"/>
</g>
<defs>
<radialGradient id="paint0_radial_1844_1347" cx="0" cy="0" r="1" gradientUnits="userSpaceOnUse" gradientTransform="translate(53.0473 88.3007) rotate(85.8187) scale(40.2243 72.7587)">
<stop stop-color="#3830B7"/>
<stop offset="1" stop-color="#392D43"/>
</radialGradient>
<clipPath id="clip0_1844_1347">
<rect width="94.28" height="94.2818" fill="white" transform="translate(0 0.281769)"/>
</clipPath>
</defs>
</svg>
